<svg id="Layer_1" data-name="Layer 1" xmlns="http://www.w3.org/2000/svg" viewBox="0 0 436.78 491.39"><defs><style>.cls-1{fill:#466ada;}.cls-2{fill:#fefefe;}</style></defs><title>film</title><path class="cls-1" d="M30,0H406.8c1.5.2,3,.31,4.51.6a31.11,31.11,0,0,1,25.52,31.12v428a37.34,37.34,0,0,1-.22,4.19,31.12,31.12,0,0,1-30.74,27.46H31.2A31.17,31.17,0,0,1,0,460.23s0,0,0,0V31.33A31.28,31.28,0,0,1,20.6,1.92,40.66,40.66,0,0,1,30,0ZM218.4,234H319.15c5.18,0,8.41-3.2,8.41-8.35V31.87c0-5.07-3.27-8.35-8.31-8.35H117.54c-5,0-8.27,3.26-8.27,8.25q0,97,0,194c0,4.95,3.25,8.21,8.17,8.21Zm0,23.48H117.71c-5.26,0-8.43,3.19-8.43,8.44V459.7c0,5,3.27,8.29,8.24,8.29H319.34a7.82,7.82,0,0,0,8.21-8.22V265.63a9.15,9.15,0,0,0-.12-1.67c-.76-4.06-3.9-6.48-8.38-6.48ZM54.54,78h23c4.9,0,8.24-3.28,8.25-8.17V31.68a7.83,7.83,0,0,0-8.24-8.2H31.76c-5,0-8.28,3.28-8.28,8.24q0,19,0,38c0,5,3.27,8.24,8.27,8.24Zm.09,257.44h-23a7.74,7.74,0,0,0-8.12,8.14v38.15A7.81,7.81,0,0,0,31.67,390H77.61c4.75,0,8.18-3.26,8.2-8q.07-19.25,0-38.51a7.76,7.76,0,0,0-7.51-8h-.64Zm0-156H31.48a7.77,7.77,0,0,0-8,7.53q0,.3,0,.6v38.51A7.72,7.72,0,0,0,31,234H77.93a7.77,7.77,0,0,0,1.55-.12c3.89-.8,6.35-3.94,6.35-8.15q0-18.78,0-37.55c0-5.51-3.19-8.68-8.73-8.68Zm0,234h-23a7.72,7.72,0,0,0-8.15,8.1v38.27A7.8,7.8,0,0,0,30.87,468q.38,0,.76,0H77.7a7.78,7.78,0,0,0,8.11-7.44q0-.28,0-.56.08-19.31,0-38.63a7.73,7.73,0,0,0-7.53-7.93H54.63ZM54.56,156H77.71a7.72,7.72,0,0,0,8.09-7.33q0-.3,0-.6.07-19.31,0-38.63a7.77,7.77,0,0,0-7.61-7.93H31.49a7.76,7.76,0,0,0-8,7.51q0,.24,0,.49V148a7.72,7.72,0,0,0,7.43,8h.5Zm0,101.48H31.65a7.76,7.76,0,0,0-8.2,8.2q0,19,0,38c0,5,3.27,8.28,8.24,8.28,15.15,0,30.31-.09,45.46.06a8.29,8.29,0,0,0,8.69-7.87q0-.4,0-.81c-.09-12.43,0-24.87,0-37.31,0-5.36-3.21-8.58-8.57-8.59ZM382.08,234H405c5.08,0,8.35-3.22,8.35-8.29V187.8c0-5.05-3.28-8.3-8.35-8.32H359.21a7.74,7.74,0,0,0-8.14,8.13v38.51a7.67,7.67,0,0,0,7.46,7.87h23.55Zm.06-156h23.15a7.72,7.72,0,0,0,8-7.43q0-.29,0-.57,0-19.25,0-38.51a7.76,7.76,0,0,0-7.51-8H359.23c-4.91,0-8.2,3.27-8.2,8.18V69.82c0,4.93,3.25,8.18,8.19,8.18Zm.1,257.44H359.08a7.69,7.69,0,0,0-8,7.36q0,.36,0,.72v38.27c0,4.89,3.3,8.16,8.23,8.16H405c5.06,0,8.37-3.25,8.38-8.29v-38a7.77,7.77,0,0,0-8.2-8.2Zm0-78H359.42c-5.18,0-8.39,3.21-8.39,8.36v37.91c0,5,3.25,8.25,8.25,8.25h45.58c5.29,0,8.48-3.21,8.49-8.53V266c0-5.38-3.19-8.56-8.58-8.56ZM382.16,156h22.91c5,0,8.25-3.23,8.28-8.23V109.86c0-5.07-3.27-8.34-8.31-8.34H359a7.69,7.69,0,0,0-7.94,7.43q0,.2,0,.4,0,19.43,0,38.86a7.65,7.65,0,0,0,7.52,7.78h23.58Zm.1,257.48h-23c-5,0-8.19,3.22-8.19,8.17q0,19.07,0,38.15a7.77,7.77,0,0,0,8.21,8.2h46c4.71,0,8.12-3.24,8.14-7.92q.09-19.37,0-38.75a7.67,7.67,0,0,0-7.48-7.85H382.26Z"/><path class="cls-2" d="M218.35,234H117.44c-4.92,0-8.17-3.26-8.17-8.21q0-97,0-194c0-5,3.27-8.25,8.27-8.25h201.7c5,0,8.31,3.28,8.31,8.35V225.67c0,5.15-3.23,8.35-8.41,8.35Z"/><path class="cls-2" d="M218.38,257.48H319c4.48,0,7.62,2.43,8.38,6.48a9.15,9.15,0,0,1,.12,1.67V459.77a7.82,7.82,0,0,1-8.21,8.22H117.52c-5,0-8.24-3.31-8.24-8.29V265.92c0-5.26,3.17-8.44,8.43-8.44Z"/><path class="cls-2" d="M54.54,78H31.74c-5,0-8.27-3.26-8.27-8.24v-38c0-5,3.3-8.24,8.28-8.24H77.58a7.83,7.83,0,0,1,8.24,8.2V69.87c0,4.89-3.36,8.17-8.25,8.17Z"/><path class="cls-2" d="M54.63,335.48h23a7.76,7.76,0,0,1,8.14,7.36q0,.32,0,.64.06,19.25,0,38.51c0,4.73-3.45,8-8.2,8H31.67a7.81,7.81,0,0,1-8.19-8.22q0-19.07,0-38.15a7.74,7.74,0,0,1,8.12-8.14Z"/><path class="cls-2" d="M54.67,179.48H77.1c5.54,0,8.73,3.17,8.73,8.68q0,18.78,0,37.55c0,4.22-2.46,7.36-6.35,8.15a7.77,7.77,0,0,1-1.55.12H31.38a7.72,7.72,0,0,1-7.91-7.53q0-.17,0-.34V187.6a7.77,7.77,0,0,1,7.4-8.13h.6C39.23,179.46,47,179.48,54.67,179.48Z"/><path class="cls-2" d="M54.66,413.48h23a7.73,7.73,0,0,1,8.11,7.33q0,.3,0,.59.07,19.31,0,38.63a7.78,7.78,0,0,1-7.55,8H31.6a7.8,7.8,0,0,1-8.16-7.42q0-.36,0-.73,0-19.13,0-38.27a7.72,7.72,0,0,1,8.15-8.1Z"/><path class="cls-2" d="M54.56,156H31.41a7.72,7.72,0,0,1-7.93-7.5q0-.25,0-.5,0-19.25,0-38.51a7.76,7.76,0,0,1,7.51-8H77.68a7.77,7.77,0,0,1,8.13,7.39q0,.27,0,.53.08,19.31,0,38.63a7.72,7.72,0,0,1-7.5,7.94h-.6Z"/><path class="cls-2" d="M54.58,257.48H77.26c5.36,0,8.57,3.22,8.57,8.59,0,12.44-.06,24.87,0,37.31a8.29,8.29,0,0,1-7.88,8.68q-.4,0-.81,0C62,311.91,46.87,312,31.71,312c-5,0-8.24-3.29-8.24-8.28v-38c0-4.89,3.28-8.19,8.2-8.2C39.31,257.47,47,257.48,54.58,257.48Z"/><path class="cls-2" d="M382.08,234H358.92a7.67,7.67,0,0,1-7.89-7.44q0-.21,0-.43V187.62a7.74,7.74,0,0,1,8.14-8.13H405c5.07,0,8.34,3.27,8.35,8.32v37.91c0,5.07-3.27,8.29-8.35,8.29Z"/><path class="cls-2" d="M382.13,78H359.22c-4.94,0-8.19-3.25-8.19-8.18V31.67c0-4.91,3.29-8.18,8.2-8.18h46a7.76,7.76,0,0,1,8.14,7.36q0,.32,0,.64.05,19.25,0,38.51a7.72,7.72,0,0,1-7.43,8h-.57Q393.71,78.06,382.13,78Z"/><path class="cls-2" d="M382.23,335.48h22.91a7.77,7.77,0,0,1,8.2,8.2q0,19,0,38c0,5-3.31,8.29-8.38,8.29h-45.7c-4.93,0-8.23-3.27-8.23-8.16V343.54a7.69,7.69,0,0,1,7.28-8.08q.36,0,.72,0Z"/><path class="cls-2" d="M382.21,257.48h22.55c5.39,0,8.58,3.18,8.58,8.56v37.43c0,5.33-3.2,8.53-8.49,8.53H359.28c-5,0-8.24-3.25-8.25-8.25V265.84c0-5.15,3.21-8.35,8.39-8.36Z"/><path class="cls-2" d="M382.16,156H358.89a7.65,7.65,0,0,1-7.85-7.45q0-.17,0-.33V109.36a7.69,7.69,0,0,1,7.54-7.83H405c5,0,8.3,3.27,8.31,8.34q0,14.45,0,28.91v9c0,5-3.28,8.23-8.28,8.23Z"/><path class="cls-2" d="M382.25,413.48h23a7.67,7.67,0,0,1,8,7.33q0,.26,0,.52.08,19.37,0,38.75c0,4.68-3.44,7.91-8.14,7.92h-46a7.77,7.77,0,0,1-8.21-8.2V421.65c0-4.94,3.24-8.17,8.19-8.17Z"/></svg>